<svg width="341" height="341" viewBox="0 0 341 341" fill="none" xmlns="http://www.w3.org/2000/svg">
<path d="M170.1 0C76.1 0 0 76.1 0 170.1C0 264.1 76.1 340.2 170.1 340.2C264.1 340.2 340.2 264 340.2 170.1C340.2 76.2 264 0 170.1 0ZM329.1 170.1C329.1 257.9 257.9 329.1 170.1 329.1C82.3 329.1 11.1 257.9 11.1 170.1C11.1 82.3 82.3 11.1 170.1 11.1C257.9 11.1 329.1 82.3 329.1 170.1Z" fill="white"/>
<path d="M252.5 97.9004C254.8 100.4 258.1 104.4 260 106.8L294.5 85.0004C292.8 82.7004 290 79.3004 288 76.9004L266.2 91.3004L264.7 92.6004L265.8 91.0004L275.4 71.8004L268.6 65.0004L249.4 74.6004L247.8 75.7004L249.1 74.2004L263.5 52.4004C261 50.2004 258.5 48.3004 255.4 45.9004L233.5 80.3004C236.3 82.4004 239.9 85.6004 242.2 87.7004L262.8 77.0004L264.1 76.0004L263.1 77.3004L252.5 97.9004Z" fill="white"/>
<path d="M174.4 54.3L183.8 33.2L184.4 31.3L184.2 33.3L185.2 61.5C188.5 61.8 191.9 62.3 195.3 62.8L193.8 21.1C189.1 20.6 184.4 20.2 179.7 20L170.4 43L170.1 44.7L169.8 43L160.5 20C155.8 20.2 151.1 20.6 146.4 21.1L144.9 62.8C148.3 62.2 151.7 61.8 155 61.5L156 33.3L155.8 31.3L156.4 33.2L165.8 54.3H174.4Z" fill="white"/>
<path d="M98.2004 87.6003C103.6 81.9003 106.7 75.2003 101.3 68.9003C98.3004 65.5003 93.4004 64.7003 89.2004 66.4003L88.8004 66.6003L88.9004 66.2003C89.5004 64.6003 89.9004 59.4003 85.5004 55.8003C83.3004 54.1003 80.6004 53.4003 77.9004 53.7003C72.8004 54.2003 68.9004 57.7003 58.2004 69.6003C55.0004 73.2003 50.3004 78.9003 47.4004 82.6003L76.8004 110.5C86.6004 99.7003 90.6004 95.6003 98.2004 87.6003ZM59.9004 80.7003C65.8004 73.5003 72.1004 66.9003 75.0004 64.3003C75.9004 63.5003 76.9004 62.7003 78.1004 62.3003C80.0004 61.8003 82.0004 63.1003 82.5004 65.1003C83.0004 67.1003 81.7004 69.0003 80.3004 70.5003C77.2004 74.0003 65.7004 86.0003 65.7004 86.0003L59.9004 80.7003ZM71.4004 91.7003C71.4004 91.7003 82.6004 79.9003 86.2004 76.1003C87.6004 74.6003 88.6004 73.7003 89.6004 73.2003C90.9004 72.6003 92.3004 72.4003 93.6004 73.3003C94.8004 74.1003 95.4004 75.6003 95.1004 77.0003C94.7004 78.7003 93.4004 80.3003 92.2004 81.5003C90.7004 83.2003 77.4004 97.3003 77.4004 97.4003L71.4004 91.7003Z" fill="white"/>
<path d="M270.9 170.1H170.1V69.2002C225.8 69.2002 270.9 114.3 270.9 170.1Z" fill="white"/>
<path d="M170.099 170.1V271C114.399 271 69.1992 225.9 69.1992 170.1H170.099Z" fill="white"/>
<path d="M170.099 69.2002V170.1H69.1992C69.1992 114.3 114.299 69.2002 170.099 69.2002Z" fill="#0066B1"/>
<path d="M270.9 170.1C270.9 225.8 225.8 271 170 271V170.1H270.9Z" fill="#0066B1"/>
</svg>
